<svg xmlns="http://www.w3.org/2000/svg" width="1920" height="1029" viewBox="0 0 1920 1029" fill="none"><g clip-path="url(#clip0_62_1134)"><path opacity="0.1" d="M1992.32 0.399902V312.456L1879.79 209.379V0.399902H1877.73L1878.08 0.721699V207.802L1765.56 104.725V0.399902H1763.84V104.725L1651.32 207.802V0.399902H964.178V104.725L851.65 207.802V0.399902H849.589L737.419 103.155V0.399902H735.701V104.725L623.182 207.802V0.399902H-63.124V315.132H277.527L165.005 418.209H-63.124V420.1L-62.7727 419.779H163.282L50.7602 522.856H-63.124V524.426H50.7602L163.282 627.503H-63.124V629.072H163.282L50.7602 732.147H-63.124V733.721H49.0469L-63.124 836.483V838.371H163.282L50.7602 941.447H-63.124V1884.08H623.165V1676.68L735.685 1779.75V1884.08H737.404V1779.75L849.924 1676.68V1883.75L849.574 1884.08H851.635V1675.11L964.155 1572.03V1884.09H1651.3V1779.76L1651.65 1779.44L1651.3 1779.12V1676.68L1763.82 1779.76V1884.09H1765.54V1781.33L1877.71 1884.09H1879.77V1676.68L1992.29 1779.76V1884.09H1993.16V941.461H1652.5L1765.02 838.378H1993.15V836.49L1992.79 836.811H1766.74L1879.26 733.736H1993.15V732.168H1879.26L1766.74 629.088H1993.15V627.518H1766.74L1879.26 524.441H1993.15V522.872H1880.97L1993.15 420.116V418.225H1766.74L1879.26 315.148H1993.15V0.399902H1992.29H1992.32ZM1764.69 106.161L1878.07 210.023V313.563H1651.3V210.023L1764.68 106.161H1764.69ZM1879.78 211.593L1991.1 313.563H1879.78V211.593ZM1193.85 1778.65L1081.33 1675.58H1307.39L1419.91 1778.65H1193.85ZM738.617 1569.35L851.137 1466.28H1078.91L1191.43 1569.35H738.617ZM507.712 1778.65H281.657L394.179 1675.58H620.234L507.712 1778.65ZM51.9688 1151.87L164.491 1048.79V1255.87L51.9688 1358.94V1151.87ZM277.519 943.028L166.204 1045V943.028H277.519ZM280.449 732.617V523.97L392.971 420.893V837.274L280.449 940.35V733.272L280.8 732.952L280.449 732.631V732.617ZM620.243 208.916H394.187L281.665 105.839H507.721L620.243 208.916ZM1079.62 105.839H1305.67L1193.15 208.916H967.094L1079.62 105.839ZM1650.11 1047.69L1762.63 1150.76H1536.57L1424.05 1047.69H1650.11ZM1535.01 1151.54L1421.63 1255.4H1308.6V1047.67H1421.63L1535.01 1151.54ZM1649.61 1675.12V1777.55L1424.06 1570.93H1649.61V1674.47L1649.26 1674.79L1649.61 1675.12ZM1193.86 1569.35L1080.49 1465.49L1193.86 1361.63H1306.89V1569.36H1193.86V1569.35ZM1078.91 1464.7H852.864L965.383 1361.63H1191.44L1078.91 1464.7ZM165.716 1674.01L53.1937 1570.93H506.007L393.485 1674.01H165.716ZM278.743 1362.74V1569.35H53.1937L278.743 1362.74ZM965.881 211.593L1077.2 313.563H965.881V211.593ZM1421.62 210.486L1534.15 313.563H1081.33L1193.85 210.486H1421.62ZM1649.6 523.97V732.617L1537.07 835.7V419.316L1649.6 316.239V523.319L1649.24 523.64L1649.6 523.963V523.97ZM1195.57 1360.05L1306.89 1258.08V1360.05H1195.57ZM738.617 1360.05L851.137 1256.98H965.881H1305.67L1193.15 1360.05H738.617ZM508.928 1569.35V1467.38L620.243 1569.35H508.928ZM621.451 1570.92V1672.89L510.137 1570.92H621.451ZM507.215 1569.35H280.449V1465.82L393.827 1361.95L507.207 1465.82V1569.35H507.215ZM508.928 523.97L621.451 420.893V627.51V835.7L508.928 732.617V523.97ZM736.548 315.454L736.906 315.132H1078.91L1191.43 418.209H736.898L624.372 315.132H736.191L736.541 315.454H736.548ZM1422.84 940.343V733.265L1535.36 630.186V837.267L1422.84 940.343ZM392.98 1360.51L280.458 1463.59V1048.78L392.98 1151.85V1360.5V1360.51ZM391.771 943.021L280.458 1044.99V943.021H391.771ZM280.817 1046.88L392.988 944.126V1149.64L280.817 1046.88ZM623.182 941.447V734.833L735.701 837.908V1046.56L623.182 1149.64V941.447ZM734.495 418.201H623.182V316.231L734.495 418.201ZM623.182 419.771H736.206L849.589 523.633L736.206 627.495H623.182V419.763V419.771ZM1421.13 732.61L1308.61 835.685V523.963L1308.96 523.64L1308.61 523.319V420.886L1421.13 523.963V732.61ZM1421.13 940.343L1308.96 837.588L1421.13 734.833V940.343ZM1306.9 1254.29L1194.38 1151.22V734.833L1306.55 837.588L1306.9 837.908V941.447V1254.29ZM851.153 524.426H1078.92L1191.45 627.503H1079.64L1079.29 627.18L1078.94 627.503H964.193H738.641L851.168 524.426H851.153ZM1192.66 940.343L1080.14 837.267V630.186L1192.66 733.265V940.343ZM851.658 733.265L964.186 630.186V732.61L963.836 732.93L964.186 733.258V942.231V1046.55L851.658 1149.63V733.251V733.265ZM962.972 629.072L851.658 731.043V629.072H962.972ZM964.186 1048.78V1255.4H738.633L964.186 1048.78ZM965.897 629.072H1077.21L965.897 731.043V629.072ZM1078.42 630.179V835.685L966.247 732.93L1078.42 630.179ZM1081.35 629.072H1193.16L1193.51 629.394L1193.86 629.072H1306.89V835.685L1081.34 629.072H1081.35ZM1195.59 627.503L1306.9 525.532V627.503H1195.59ZM1193.51 627.18L1081.34 524.426H1305.68L1193.51 627.18ZM849.939 629.072V732.61L736.564 836.476L623.182 732.61V629.072H849.947H849.939ZM737.419 837.908L849.939 734.833V941.91L737.419 1044.99V837.908ZM849.939 944.126V1151.2L737.419 1254.29V1047.2L849.939 944.126ZM735.701 1254.29L623.533 1151.53L735.701 1048.78V1254.29ZM734.495 1255.39H623.182V1153.42L734.495 1255.39ZM965.897 942.231V734.826L1078.42 837.901V1046.55L965.897 1149.63V942.231ZM1080.14 839.476L1192.66 942.551V1149.63L1080.14 1046.55V839.476ZM1306.9 315.116V521.733L1081.35 315.116H1306.9ZM1305.69 522.848H1079.64L967.118 419.771H1193.17L1305.69 522.848ZM964.691 419.771L1077.21 522.848H851.153L738.633 419.771H964.691ZM965.897 1151.86L1079.28 1048L1192.66 1151.86V1255.4H965.889V1151.86H965.897ZM1194.38 1153.43L1305.69 1255.4H1194.38V1153.43ZM1308.61 839.483L1419.93 941.447H1308.61V839.483ZM1535.38 627.958L1422.86 731.035V523.955L1535.38 420.878V627.958ZM1422 522.526L1308.62 418.664V315.124H1535.39V418.664L1422.01 522.526H1422ZM621.477 417.095L510.163 315.124H621.477V417.095ZM508.955 316.239L621.125 418.994L508.955 521.749V316.239ZM394.719 1360.51V1153.43L507.241 1256.5V1463.59L394.719 1360.51ZM507.241 1254.29L394.719 1151.22V944.133L507.241 1047.21V1254.29ZM395.926 943.021H621.477V1149.64L395.926 943.021ZM736.222 1256.96L736.572 1257.29L736.922 1256.96H848.734L623.182 1463.59V1256.96H736.206H736.222ZM1424.07 941.447L1649.62 734.833V941.447H1424.07ZM1537.1 417.095V315.124H1648.42L1537.1 417.095ZM1079.3 313.233L967.125 210.478H1191.47L1079.3 313.233ZM510.171 313.555L621.486 211.585V313.555H510.171ZM508.106 313.233L395.935 210.478H620.277L508.106 313.233ZM506.042 315.124L280.492 521.741V315.124H506.042ZM507.249 316.231V523.311L394.727 626.388V419.308L507.249 316.231ZM394.727 628.609L507.249 525.532V732.61L394.727 835.685V628.609ZM508.106 734.042L621.486 837.901V941.44H394.719V837.901L508.098 734.042H508.106ZM393.014 941.44H281.7L393.014 839.476V941.44ZM508.106 1571.23L620.277 1673.98H395.935L508.106 1571.23ZM508.963 1465.15V1048.78L621.134 1151.53L621.486 1151.85V1256.96V1465.15L621.134 1465.47L621.486 1465.79V1568.22L508.963 1465.15ZM624.415 1464.68L736.937 1361.61H962.996L850.468 1464.68H624.415ZM848.757 1466.25L736.587 1569L624.415 1466.25H848.757ZM1308.64 1569.33V1362.71L1534.19 1569.33H1308.64ZM1309.85 1361.6H1535.9L1648.43 1464.68H1422.37L1309.85 1361.6ZM1309.85 1360.03L1422.02 1257.27L1534.19 1360.03H1309.85ZM1308.64 1358.92V1256.95H1419.95L1308.64 1358.92ZM1308.64 1046.08V944.111L1419.95 1046.08H1308.64ZM1649.6 104.262H1538.29L1649.6 2.29144V104.262ZM1649.6 105.831V313.563H1536.57L1423.19 209.701L1536.57 105.839H1649.6V105.831ZM1421.62 208.908H1195.57L1308.09 105.831H1534.15L1421.62 208.908ZM623.165 313.555V211.585L734.48 313.555H623.165ZM279.24 105.831L391.763 208.908H165.707L53.1852 105.831H279.24ZM165.707 210.478H393.477L505.999 313.555H53.1852L165.707 210.478ZM278.735 944.133V1046.57L278.384 1046.89L278.735 1047.21V1360.51L166.213 1463.59V1047.2L278.735 944.126V944.133ZM164.499 1258.08V1465.16L51.9774 1568.24V1361.16L164.499 1258.08ZM50.2633 1568.24L-61.9159 1465.49L50.2547 1362.74V1568.25L50.2633 1568.24ZM164.148 1674.79L50.7688 1778.65H-62.2672V1570.91H50.7602L164.139 1674.77L164.148 1674.79ZM165.716 1675.57H391.771L279.249 1778.65H53.1852L165.707 1675.57H165.716ZM623.173 1467.38L734.488 1569.35H623.173V1467.38ZM965.889 1572.03L1077.2 1674H965.889V1572.03ZM967.094 1570.92H1306.89H1421.63L1534.16 1674H1079.63L967.102 1570.92H967.094ZM1309.81 1675.57H1535.87L1648.39 1778.65H1422.34L1309.81 1675.57ZM1648.39 1780.21L1536.22 1882.97L1424.05 1780.21H1648.39ZM1765.05 1569.35L1764.7 1569.03L1764.35 1569.35H1536.58L1424.06 1466.27H1878.59L1991.11 1569.35H1765.06H1765.05ZM1650.81 1464.7L1538.29 1361.62H1764.35L1876.87 1464.7H1650.81ZM1764.35 1360.05H1536.58L1424.06 1256.98H1876.87L1764.35 1360.05ZM1424.06 1255.4L1536.58 1152.33H1764.35L1876.87 1255.4H1424.05H1424.06ZM1766.77 1152.33H1991.11L1878.94 1255.08L1766.77 1152.33ZM1765.06 1150.76L1652.54 1047.69H1878.59L1991.11 1150.76H1765.06ZM1422.35 1046.11L1309.83 943.035H1421.64L1422 943.356L1422.35 943.035H1764.35L1876.87 1046.11H1422.35ZM1535.88 104.27H1081.34L1193.85 1.18478H1648.39L1535.87 104.262L1535.88 104.27ZM1191.43 1.18478L965.881 207.802V1.18478H1191.43ZM964.17 209.371L963.812 209.693L964.17 210.015V313.555H738.617L964.17 106.938V209.371ZM849.932 2.29144V209.371L737.412 312.448V105.376L849.932 2.29144ZM735.693 106.938V312.448L623.525 209.693L735.693 106.938ZM621.451 1.18478V207.802L395.901 1.18478H621.451ZM393.477 1.18478L505.999 104.262H51.4718L-61.0592 1.18478H393.468H393.477ZM49.0469 104.262H-62.2672V2.29144L49.0469 104.262ZM-62.2672 105.831H50.7602L164.139 209.693L50.7602 313.555H-62.2672V105.831ZM278.735 316.239V418.209H167.421L278.735 316.239ZM165.707 419.779H278.735V627.51H165.707L165.356 627.188L52.3281 523.648L165.707 419.787V419.779ZM278.735 629.08V731.05L167.421 629.08H278.735ZM165.356 629.402L277.527 732.154H53.1852L165.356 629.402ZM-61.0592 836.811L51.4633 733.736H277.519L164.996 836.811H-61.0592ZM278.735 734.84V941.461H53.1852L278.735 734.84ZM164.499 943.028V1046.57L51.1203 1150.43L-62.2672 1046.57V943.028H164.499ZM-62.2672 1048.79L50.2547 1151.87V1360.52L-62.2672 1463.59V1048.78V1048.79ZM49.0469 1569.35H-62.2672V1467.38L49.0469 1569.35ZM-62.2672 1780.22H49.0469L-62.2672 1882.19V1780.22ZM51.4718 1780.22H505.999L393.477 1883.3H-61.0592L51.4633 1780.22H51.4718ZM395.901 1883.3L621.451 1676.68V1883.3H395.901ZM736.548 1778.33L623.525 1674.79L623.173 1674.46V1570.92H736.199L736.548 1571.24L736.906 1570.92H849.932V1674.46L736.548 1778.33ZM851.643 1570.92H962.957L851.643 1672.89V1570.92ZM965.881 1675.57H1078.91L1192.29 1779.43L1078.91 1883.29H965.881V1675.56V1675.57ZM1081.33 1883.3L1193.85 1780.22H1421.62L1534.15 1883.3H1081.33ZM1538.29 1883.3L1649.6 1781.33V1883.3H1538.29ZM1651.31 1570.92H1762.63L1651.31 1672.89V1570.92ZM1651.66 1674.79L1763.83 1572.03V1777.54L1651.66 1674.79ZM1878.07 1882.19L1765.55 1779.11V1572.03L1878.07 1675.11V1882.19ZM1992.31 1777.54L1766.76 1570.92H1992.31V1777.54ZM1992.31 1568.25L1880.99 1466.28H1992.31V1568.25ZM1879.28 1464.7L1765.9 1360.84L1879.28 1256.99H1992.31V1464.71H1879.28V1464.7ZM1992.31 1255.4H1880.99L1992.31 1153.43V1255.4ZM1766.76 943.028H1992.31V1149.64L1766.76 943.028ZM1651.3 940.343V838.371H1762.62L1651.3 940.343ZM1764.33 836.804H1651.3V629.072H1764.33L1764.68 629.394L1877.71 732.93L1764.33 836.797V836.804ZM1651.3 627.503V525.532L1762.62 627.503H1651.3ZM1764.68 627.18L1652.51 524.426H1876.86L1764.68 627.18ZM1991.09 419.779L1878.57 522.856H1652.51L1765.04 419.779H1991.09ZM1651.3 521.749V315.132H1876.84L1651.3 521.749Z" fill="#80B4FF"></path></g><defs><clipPath id="clip0_62_1134"><rect width="1920" height="1029" fill="white"></rect></clipPath></defs></svg>